<svg width="19" height="19" viewBox="0 0 19 19" fill="none" xmlns="http://www.w3.org/2000/svg">
<g opacity="0.6">
<path d="M17.1246 9.06543H1.14161C0.512173 9.06543 -3.05176e-05 9.57763 -3.05176e-05 10.2071C-3.05176e-05 10.8365 0.512173 11.3487 1.14161 11.3487H17.1246C17.754 11.3487 18.2662 10.8365 18.2662 10.2071C18.2662 9.57763 17.754 9.06543 17.1246 9.06543Z" fill="#071560"/>
<path d="M17.2296 10.6021C17.0234 10.5442 16.8163 10.6614 16.7593 10.8639L16.7296 10.9682H1.53738L1.50695 10.8639C1.44987 10.6614 1.24134 10.5458 1.03659 10.6021C0.834131 10.6599 0.717684 10.8708 0.775551 11.0724L1.82433 14.7439C2.1493 15.8818 3.20268 16.6764 4.38542 16.6764H13.88C15.0635 16.6764 16.1161 15.8818 16.4411 14.7439L17.4899 11.0724C17.5485 10.8707 17.4313 10.6599 17.2296 10.6021ZM4.38617 15.1542C3.87928 15.1542 3.42719 14.8139 3.28866 14.3261L2.79472 12.5953C2.73689 12.3929 2.85408 12.1828 3.05576 12.125C3.25972 12.0672 3.46904 12.1851 3.52612 12.3868L4.02006 14.1175C4.06726 14.2797 4.21717 14.3938 4.38613 14.3938C4.59619 14.3938 4.76669 14.5643 4.76669 14.7744C4.76672 14.9844 4.59623 15.1542 4.38617 15.1542Z" fill="#071560"/>
<path d="M5.11679 15.9548C4.92881 15.8628 4.70123 15.9366 4.60608 16.1253L3.845 17.6475C3.75138 17.8355 3.82748 18.0638 4.01549 18.1582C4.07104 18.1856 4.12891 18.1986 4.18599 18.1986C4.32527 18.1986 4.45924 18.1217 4.5262 17.9878L5.28728 16.4656C5.3809 16.2775 5.30476 16.0492 5.11679 15.9548Z" fill="#071560"/>
<path d="M14.4212 17.6483L13.6601 16.1261C13.5657 15.9373 13.3374 15.862 13.1494 15.9556C12.9614 16.0499 12.8853 16.2783 12.9789 16.4663L13.74 17.9885C13.8069 18.1217 13.9409 18.1985 14.0802 18.1985C14.1372 18.1985 14.1951 18.1856 14.2507 18.159C14.4387 18.0646 14.5148 17.8363 14.4212 17.6483Z" fill="#071560"/>
<path d="M15.2865 0C14.8984 0 14.5331 0.151446 14.2583 0.426224L13.0505 1.63408C12.902 1.78249 12.902 2.02377 13.0505 2.17218C13.1989 2.3206 13.4401 2.3206 13.5886 2.17218L14.7964 0.965078C14.9265 0.834182 15.1008 0.761867 15.2903 0.761867C15.6724 0.761867 15.9829 1.07239 15.9829 1.45445V9.44593C15.9829 9.65599 16.1534 9.82649 16.3635 9.82649C16.5735 9.82649 16.744 9.65599 16.7448 9.44518V1.4537C16.7448 0.652269 16.0933 0 15.2865 0Z" fill="#071560"/>
<path d="M13.9691 2.01464L13.208 1.25356C13.1212 1.1668 13.0002 1.12645 12.8769 1.147L10.9742 1.45906C10.8342 1.48189 10.7192 1.58082 10.6743 1.71478C10.6294 1.84875 10.6637 1.99791 10.7626 2.09912L13.0459 4.4509C13.1182 4.52625 13.2179 4.5666 13.3184 4.5666C13.3542 4.5666 13.3907 4.56129 13.4264 4.55062C13.5619 4.51105 13.6646 4.39917 13.692 4.26064L14.0726 2.35792C14.0977 2.23384 14.0589 2.10519 13.9691 2.01464Z" fill="#071560"/>
<path d="M9.02121 4.61073C8.8728 4.46232 8.63152 4.46232 8.48311 4.61073L7.72203 5.37181C7.57361 5.52022 7.57361 5.7615 7.72203 5.90992C7.79663 5.98373 7.89402 6.02105 7.99145 6.02105C8.08889 6.02105 8.18628 5.98377 8.26013 5.90992L9.02121 5.14883C9.16963 5.00039 9.16963 4.75914 9.02121 4.61073Z" fill="#071560"/>
<path d="M10.5434 6.13292C10.395 5.9845 10.1537 5.9845 10.0053 6.13292L9.24424 6.894C9.09583 7.04241 9.09583 7.28369 9.24424 7.4321C9.31884 7.50592 9.41624 7.54323 9.51367 7.54323C9.6111 7.54323 9.7085 7.50595 9.78235 7.4321L10.5434 6.67102C10.6918 6.52261 10.6918 6.28133 10.5434 6.13292Z" fill="#071560"/>
<path d="M11.3045 3.84962C11.1561 3.70121 10.9148 3.70121 10.7664 3.84962L10.0053 4.6107C9.85688 4.75912 9.85688 5.0004 10.0053 5.14881C10.0799 5.22262 10.1773 5.25994 10.2747 5.25994C10.3722 5.25994 10.4695 5.22266 10.5434 5.14881L11.3045 4.38773C11.4529 4.23931 11.4529 3.99803 11.3045 3.84962Z" fill="#071560"/>
</g>
</svg>
