<svg width="23" height="16" viewBox="0 0 23 16" fill="none" xmlns="http://www.w3.org/2000/svg">
<g opacity="0.6">
<path d="M2.32091 5.57028H4.64185C4.49889 5.57028 4.36425 5.50435 4.27608 5.39203C4.18787 5.27971 4.15723 5.13301 4.19161 4.99376L4.48035 3.83979C4.63541 3.21871 5.19148 2.78514 5.83114 2.78514H8.8196C9.58738 2.78514 10.2122 3.40993 10.2122 4.17771V5.10608C10.2122 5.36231 10.0042 5.57028 9.74796 5.57028H12.5331C12.2769 5.57028 12.0689 5.36231 12.0689 5.10608V4.17771C12.0689 3.40993 12.6937 2.78514 13.4615 2.78514H16.4499C17.0896 2.78514 17.6457 3.21871 17.8007 3.83979L18.0895 4.99376C18.1248 5.1321 18.0932 5.27971 18.005 5.39203C17.9168 5.50435 17.7822 5.57028 17.6392 5.57028H19.9602C20.2164 5.57028 20.4244 5.36231 20.4244 5.10608V2.32094C20.4244 1.04164 19.3827 0 18.1034 0H4.17769C2.89839 0 1.85675 1.04164 1.85675 2.32094V5.10608C1.85675 5.36231 2.06468 5.57028 2.32091 5.57028Z" fill="#06124E"/>
<path d="M19.9602 6.49866H2.3209C1.04161 6.49866 -3.05176e-05 7.5403 -3.05176e-05 8.81959V15.3182C-3.05176e-05 15.5745 0.207941 15.7824 0.464174 15.7824C0.720407 15.7824 0.928378 15.5745 0.928378 15.3182V13.9257H21.3527V15.3182C21.3527 15.5745 21.5607 15.7824 21.8169 15.7824C22.0732 15.7824 22.2811 15.5745 22.2811 15.3182V8.81959C22.2811 7.5403 21.2394 6.49866 19.9602 6.49866ZM21.3527 12.9973H0.928335V12.0689H21.3527V12.9973H21.3527Z" fill="#06124E"/>
</g>
</svg>
