<svg width="29" height="29" viewBox="0 0 29 29" fill="none" xmlns="http://www.w3.org/2000/svg">
<g opacity="0.7">
<path d="M26.6673 4.89525e-08H1.55671C0.696848 0.000422721 -0.000215292 0.68494 4.98805e-08 1.52902V26.1725C0.000430734 27.0163 0.697924 27.7004 1.558 27.7002H26.6673C27.5276 27.7004 28.2251 27.0161 28.2253 26.1718C28.2253 26.1716 28.2253 26.1714 28.2253 26.1712V1.52775C28.2249 0.683883 27.5274 -0.000211287 26.6673 4.89525e-08Z" fill="#4267B2"/>
<path d="M19.4876 28.0237V17.3115H23.1673L23.7186 13.1186H19.4876V10.4481C19.4876 9.23696 19.8302 8.41169 21.5999 8.41169H23.8427V4.67168C23.4525 4.62075 22.1137 4.50684 20.5559 4.50684C17.3034 4.50684 15.0774 6.45451 15.0774 10.0328V13.1186H11.4114V17.3115H15.0774V28.0237H19.4876Z" fill="white"/>
</g>
</svg>
