<svg width="8" height="12" viewBox="0 0 8 12" fill="none" xmlns="http://www.w3.org/2000/svg">
<path d="M3.834 0C1.71997 0 0 1.79445 0 4.00001C0 4.66212 0.158669 5.3186 0.460304 5.90088L3.62434 11.8711C3.66646 11.9507 3.74672 12 3.834 12C3.92128 12 4.00154 11.9507 4.04366 11.8711L7.20886 5.89891C7.50933 5.3186 7.668 4.66209 7.668 3.99998C7.668 1.79445 5.94803 0 3.834 0ZM3.834 6C2.77699 6 1.91701 5.10279 1.91701 4.00001C1.91701 2.89723 2.77699 2.00002 3.834 2.00002C4.89101 2.00002 5.75099 2.89723 5.75099 4.00001C5.75099 5.10279 4.89101 6 3.834 6Z" fill="#06124E"/>
</svg>
