<svg width="133" height="127" viewBox="0 0 133 127" fill="none" xmlns="http://www.w3.org/2000/svg">
<g opacity="0.5">
<circle cx="43.5309" cy="4.87254" r="3.41483" transform="rotate(28.0043 43.5309 4.87254)" fill="white"/>
<circle cx="55.5909" cy="11.2859" r="3.41483" transform="rotate(28.0043 55.5909 11.2859)" fill="white"/>
<circle cx="67.6508" cy="17.6994" r="3.41483" transform="rotate(28.0043 67.6508 17.6994)" fill="white"/>
<circle cx="79.7108" cy="24.113" r="3.41483" transform="rotate(28.0043 79.7108 24.113)" fill="white"/>
<circle cx="91.7707" cy="30.5271" r="3.41483" transform="rotate(28.0043 91.7707 30.5271)" fill="white"/>
<circle cx="103.831" cy="36.9407" r="3.41483" transform="rotate(28.0043 103.831 36.9407)" fill="white"/>
<circle cx="115.891" cy="43.354" r="3.41483" transform="rotate(28.0043 115.891 43.354)" fill="white"/>
<circle cx="127.951" cy="49.7676" r="3.41483" transform="rotate(28.0043 127.951 49.7676)" fill="white"/>
<circle cx="37.1169" cy="16.9336" r="3.41483" transform="rotate(28.0043 37.1169 16.9336)" fill="white"/>
<circle cx="49.1773" cy="23.3462" r="3.41483" transform="rotate(28.0043 49.1773 23.3462)" fill="white"/>
<circle cx="61.2373" cy="29.7597" r="3.41483" transform="rotate(28.0043 61.2373 29.7597)" fill="white"/>
<circle cx="73.2973" cy="36.1733" r="3.41483" transform="rotate(28.0043 73.2973 36.1733)" fill="white"/>
<circle cx="85.3572" cy="42.5874" r="3.41483" transform="rotate(28.0043 85.3572 42.5874)" fill="white"/>
<circle cx="97.4172" cy="49.001" r="3.41483" transform="rotate(28.0043 97.4172 49.001)" fill="white"/>
<circle cx="109.477" cy="55.4143" r="3.41483" transform="rotate(28.0043 109.477 55.4143)" fill="white"/>
<circle cx="121.537" cy="61.8279" r="3.41483" transform="rotate(28.0043 121.537 61.8279)" fill="white"/>
<circle cx="30.7035" cy="28.9929" r="3.41483" transform="rotate(28.0043 30.7035 28.9929)" fill="white"/>
<circle cx="42.7635" cy="35.4062" r="3.41483" transform="rotate(28.0043 42.7635 35.4062)" fill="white"/>
<circle cx="54.8235" cy="41.8198" r="3.41483" transform="rotate(28.0043 54.8235 41.8198)" fill="white"/>
<circle cx="66.8835" cy="48.2334" r="3.41483" transform="rotate(28.0043 66.8835 48.2334)" fill="white"/>
<circle cx="78.9434" cy="54.6474" r="3.41483" transform="rotate(28.0043 78.9434 54.6474)" fill="white"/>
<circle cx="91.0034" cy="61.061" r="3.41483" transform="rotate(28.0043 91.0034 61.061)" fill="white"/>
<circle cx="103.063" cy="67.4743" r="3.41483" transform="rotate(28.0043 103.063 67.4743)" fill="white"/>
<circle cx="115.124" cy="73.8879" r="3.41483" transform="rotate(28.0043 115.124 73.8879)" fill="white"/>
<circle cx="24.29" cy="41.053" r="3.41483" transform="rotate(28.0043 24.29 41.053)" fill="white"/>
<circle cx="36.3502" cy="47.4663" r="3.41483" transform="rotate(28.0043 36.3502 47.4663)" fill="white"/>
<circle cx="48.4101" cy="53.8796" r="3.41483" transform="rotate(28.0043 48.4101 53.8796)" fill="white"/>
<circle cx="60.4701" cy="60.2932" r="3.41483" transform="rotate(28.0043 60.4701 60.2932)" fill="white"/>
<circle cx="72.5301" cy="66.7073" r="3.41483" transform="rotate(28.0043 72.5301 66.7073)" fill="white"/>
<circle cx="84.59" cy="73.1208" r="3.41483" transform="rotate(28.0043 84.59 73.1208)" fill="white"/>
<circle cx="96.65" cy="79.5342" r="3.41483" transform="rotate(28.0043 96.65 79.5342)" fill="white"/>
<circle cx="108.71" cy="85.9477" r="3.41483" transform="rotate(28.0043 108.71 85.9477)" fill="white"/>
<circle cx="17.8766" cy="53.1125" r="3.41483" transform="rotate(28.0043 17.8766 53.1125)" fill="white"/>
<circle cx="29.9366" cy="59.5259" r="3.41483" transform="rotate(28.0043 29.9366 59.5259)" fill="white"/>
<circle cx="41.9965" cy="65.9394" r="3.41483" transform="rotate(28.0043 41.9965 65.9394)" fill="white"/>
<circle cx="54.0565" cy="72.353" r="3.41483" transform="rotate(28.0043 54.0565 72.353)" fill="white"/>
<circle cx="66.1164" cy="78.7671" r="3.41483" transform="rotate(28.0043 66.1164 78.7671)" fill="white"/>
<circle cx="78.1764" cy="85.1806" r="3.41483" transform="rotate(28.0043 78.1764 85.1806)" fill="white"/>
<circle cx="90.2363" cy="91.594" r="3.41483" transform="rotate(28.0043 90.2363 91.594)" fill="white"/>
<circle cx="102.297" cy="98.0076" r="3.41483" transform="rotate(28.0043 102.297 98.0076)" fill="white"/>
<circle cx="11.4631" cy="65.1726" r="3.41483" transform="rotate(28.0043 11.4631 65.1726)" fill="white"/>
<circle cx="23.5231" cy="71.5857" r="3.41483" transform="rotate(28.0043 23.5231 71.5857)" fill="white"/>
<circle cx="35.5831" cy="77.9993" r="3.41483" transform="rotate(28.0043 35.5831 77.9993)" fill="white"/>
<circle cx="47.643" cy="84.4128" r="3.41483" transform="rotate(28.0043 47.643 84.4128)" fill="white"/>
<circle cx="59.703" cy="90.8269" r="3.41483" transform="rotate(28.0043 59.703 90.8269)" fill="white"/>
<circle cx="71.763" cy="97.2402" r="3.41483" transform="rotate(28.0043 71.763 97.2402)" fill="white"/>
<circle cx="83.823" cy="103.654" r="3.41483" transform="rotate(28.0043 83.823 103.654)" fill="white"/>
<circle cx="95.8833" cy="110.067" r="3.41483" transform="rotate(28.0043 95.8833 110.067)" fill="white"/>
<circle cx="5.04924" cy="77.2327" r="3.41483" transform="rotate(28.0043 5.04924 77.2327)" fill="white"/>
<circle cx="17.1094" cy="83.646" r="3.41483" transform="rotate(28.0043 17.1094 83.646)" fill="white"/>
<circle cx="29.1693" cy="90.0596" r="3.41483" transform="rotate(28.0043 29.1693 90.0596)" fill="white"/>
<circle cx="41.2292" cy="96.4731" r="3.41483" transform="rotate(28.0043 41.2292 96.4731)" fill="white"/>
<circle cx="53.2892" cy="102.887" r="3.41483" transform="rotate(28.0043 53.2892 102.887)" fill="white"/>
<circle cx="65.3492" cy="109.301" r="3.41483" transform="rotate(28.0043 65.3492 109.301)" fill="white"/>
<circle cx="77.4091" cy="115.714" r="3.41483" transform="rotate(28.0043 77.4091 115.714)" fill="white"/>
<circle cx="89.4694" cy="122.128" r="3.41483" transform="rotate(28.0043 89.4694 122.128)" fill="white"/>
</g>
</svg>
