<svg width="14" height="16" viewBox="0 0 14 16" fill="none" xmlns="http://www.w3.org/2000/svg">
<g opacity="0.6">
<path d="M3.87601 2.21484H9.41316V4.98342H3.87601V2.21484Z" fill="#06124E"/>
<path d="M3.59915 8.85944C3.75206 8.85944 3.87601 8.73549 3.87601 8.58258C3.87601 8.42968 3.75206 8.30573 3.59915 8.30573C3.44625 8.30573 3.3223 8.42968 3.3223 8.58258C3.3223 8.73549 3.44625 8.85944 3.59915 8.85944Z" fill="#06124E"/>
<path d="M11.9049 14.1197V0H1.38431V14.1197H1.66117V0.553715C1.66117 0.480288 1.69033 0.409868 1.74226 0.357947C1.79418 0.306026 1.8646 0.276857 1.93802 0.276857H11.3512C11.4246 0.276857 11.495 0.306026 11.5469 0.357947C11.5989 0.409868 11.628 0.480288 11.628 0.553715V14.1197H11.9049Z" fill="#06124E"/>
<path d="M0 14.6734H13.2892V15.7809H0V14.6734Z" fill="#06124E"/>
<path d="M10.8594 14.2892V1H2V14.2892H10.8594ZM3.10743 2.10743C3.10743 2.034 3.1366 1.96358 3.18852 1.91166C3.24044 1.85974 3.31086 1.83057 3.38429 1.83057H9.47515C9.54858 1.83057 9.619 1.85974 9.67092 1.91166C9.72284 1.96358 9.75201 2.034 9.75201 2.10743V5.42972C9.75201 5.50315 9.72284 5.57357 9.67092 5.62549C9.619 5.67741 9.54858 5.70658 9.47515 5.70658H3.38429C3.31086 5.70658 3.24044 5.67741 3.18852 5.62549C3.1366 5.57357 3.10743 5.50315 3.10743 5.42972V2.10743ZM3.38429 7.92144C3.54856 7.92144 3.70914 7.97015 3.84573 8.06141C3.98232 8.15268 4.08877 8.2824 4.15164 8.43416C4.2145 8.58593 4.23095 8.75293 4.1989 8.91405C4.16685 9.07516 4.08775 9.22315 3.97159 9.33931C3.85543 9.45547 3.70744 9.53458 3.54632 9.56662C3.38521 9.59867 3.21821 9.58222 3.06644 9.51936C2.91467 9.45649 2.78496 9.35004 2.69369 9.21345C2.60243 9.07686 2.55371 8.91628 2.55371 8.75201C2.55371 8.53173 2.64122 8.32047 2.79698 8.16471C2.95275 8.00894 3.16401 7.92144 3.38429 7.92144Z" fill="#06124E"/>
</g>
</svg>
