<svg width="207" height="217" viewBox="0 0 207 217" fill="none" xmlns="http://www.w3.org/2000/svg">
<path opacity="0.9" d="M156.832 74.462C157.238 74.462 157.642 74.5241 158.029 74.6461C158.624 74.8333 159.166 75.1574 159.612 75.5922L159.93 75.9011C160.26 76.2225 160.535 76.5954 160.745 77.0054L160.929 77.3648C161.059 77.5924 161.166 77.8322 161.249 78.0807L161.371 78.446C161.539 78.9502 161.625 79.478 161.627 80.0094L161.946 170.205C161.951 171.846 161.151 173.385 159.805 174.324L105.59 212.118C103.355 213.676 100.284 213.158 98.6843 210.953L1.84324 77.5233C1.74112 77.3826 1.65848 77.2287 1.5976 77.0658C1.12651 75.8055 2.05836 74.4623 3.40384 74.4623L156.832 74.462Z" fill="#1435DF"/>
</svg>
