<svg width="28" height="28" viewBox="0 0 28 28" fill="none" xmlns="http://www.w3.org/2000/svg">
<g opacity="0.7">
<path d="M27.7646 0H0V27.248H27.7646V0Z" fill="#50ABF1"/>
<path d="M4.01916 21.2219C5.86696 22.372 8.05885 23.0376 10.4085 23.0376C17.0094 23.0376 22.3604 17.7856 22.3604 11.308C22.3604 11.1463 22.3569 10.9858 22.3506 10.8257C22.5893 10.6413 24.066 9.47978 24.4279 8.73307C24.4279 8.73307 23.2288 9.22215 22.0551 9.33736C22.0528 9.33736 22.05 9.3379 22.0477 9.3379C22.0477 9.3379 22.05 9.33676 22.054 9.33395C22.1621 9.26304 23.674 8.25302 23.8787 7.04957C23.8787 7.04957 23.0305 7.49387 21.8429 7.88256C21.6463 7.94666 21.4406 8.00967 21.2284 8.06809C20.4629 7.26631 19.3748 6.76587 18.167 6.76587C15.8502 6.76587 13.973 8.60769 13.973 10.8796C13.973 11.2002 14.0106 11.5122 14.0816 11.8118C13.7579 11.7988 8.82782 11.5275 5.47388 7.54146C5.47388 7.54146 3.46939 10.227 6.6684 12.9886C6.6684 12.9886 5.69595 12.9506 4.85698 12.4586C4.85698 12.4586 4.54883 15.7121 8.17162 16.544C8.17162 16.544 7.45876 16.809 6.32151 16.62C6.32151 16.62 6.95748 19.2489 10.1762 19.4946C10.1762 19.4946 7.63099 21.751 4.01801 21.2216L4.01916 21.2219Z" fill="white"/>
</g>
</svg>
