<svg width="40" height="28" viewBox="0 0 40 28" fill="none" xmlns="http://www.w3.org/2000/svg">
<g opacity="0.7">
<path d="M38.7881 4.26201C38.3316 2.59549 36.9939 1.28187 35.2976 0.83311C32.1984 0 19.8017 0 19.8017 0C19.8017 0 7.40519 0 4.306 0.801353C2.64234 1.24981 1.27207 2.59579 0.815514 4.26201C0 7.30597 0 13.6188 0 13.6188C0 13.6188 0 19.9635 0.815514 22.9757C1.27237 24.6419 2.6097 25.9558 4.3063 26.4046C7.43782 27.2377 19.802 27.2377 19.802 27.2377C19.802 27.2377 32.1984 27.2377 35.2976 26.4363C36.9942 25.9879 38.3316 24.674 38.7884 23.0077C39.6039 19.9635 39.6039 13.6509 39.6039 13.6509C39.6039 13.6509 39.6366 7.30597 38.7881 4.26201Z" fill="#FF0000"/>
<path d="M15 20.2226L25.8118 14.1113L15 8V20.2226Z" fill="white"/>
</g>
</svg>
